<svg xmlns="http://www.w3.org/2000/svg" xmlns:xlink="http://www.w3.org/1999/xlink" width="63" height="63" viewBox="0 0 63 63">
  <defs>
    <filter id="Ellipse_18" x="0" y="0" width="63" height="63" filterUnits="userSpaceOnUse">
      <feOffset dy="3" input="SourceAlpha"/>
      <feGaussianBlur stdDeviation="3" result="blur"/>
      <feFlood flood-opacity="0.161"/>
      <feComposite operator="in" in2="blur"/>
      <feComposite in="SourceGraphic"/>
    </filter>
  </defs>
  <g id="Group_76" data-name="Group 76" transform="translate(-100 -1437)">
    <g transform="matrix(1, 0, 0, 1, 100, 1437)" filter="url(#Ellipse_18)">
      <circle id="Ellipse_18-2" data-name="Ellipse 18" cx="22.5" cy="22.5" r="22.5" transform="translate(9 6)" fill="#fff"/>
    </g>
    <path id="Icon_feather-twitter" data-name="Icon feather-twitter" d="M28.417,4.5a13.336,13.336,0,0,1-3.842,1.872,5.481,5.481,0,0,0-9.617,3.671v1.224A13.043,13.043,0,0,1,3.947,5.721S-.947,16.732,10.065,21.626A14.242,14.242,0,0,1,1.5,24.073c11.012,6.118,24.47,0,24.47-14.07a5.506,5.506,0,0,0-.1-1.016A9.446,9.446,0,0,0,28.417,4.5Z" transform="translate(117.083 1451.561)" fill="none" stroke="#000" stroke-linecap="round" stroke-linejoin="round" stroke-width="2"/>
  </g>
</svg>
