<svg xmlns="http://www.w3.org/2000/svg" width="29.411" height="16.424" viewBox="0 0 29.411 16.424">
  <g id="Polygon_2" data-name="Polygon 2" transform="translate(29.133 16.424) rotate(-179)">
    <path d="M 24.59598731994629 15.16796398162842 L 4.541706562042236 15.16796398162842 C 4.031136512756348 15.16796398162842 3.603476762771606 14.88900470733643 3.397716760635376 14.42173385620117 C 3.191946744918823 13.95447444915771 3.274906635284424 13.45066452026367 3.619616746902466 13.07403469085693 L 13.64675712585449 2.118344306945801 C 13.88640689849854 1.856494307518005 14.21387672424316 1.712284326553345 14.56884670257568 1.712284326553345 C 14.9238166809082 1.712284326553345 15.25128650665283 1.856494307518005 15.49093627929688 2.118344306945801 L 25.51807594299316 13.07403469085693 C 25.8627872467041 13.45065402984619 25.94574737548828 13.95447444915771 25.73997688293457 14.42173385620117 C 25.53421592712402 14.88900470733643 25.1065559387207 15.16796398162842 24.59598731994629 15.16796398162842 Z" stroke="none"/>
    <path d="M 14.56884670257568 2.462284088134766 C 14.48661708831787 2.462284088134766 14.3293571472168 2.483384132385254 14.20000648498535 2.624704360961914 L 4.172866821289062 13.58038425445557 C 3.981277465820312 13.78972434997559 4.035017013549805 14.00799465179443 4.0841064453125 14.11947441101074 C 4.133195877075195 14.23094463348389 4.257926940917969 14.41796398162842 4.541706085205078 14.41796398162842 L 24.59598731994629 14.41796398162842 C 24.8797664642334 14.41796398162842 25.00449752807617 14.23095417022705 25.05358695983887 14.11947441101074 C 25.10267639160156 14.00799465179443 25.15641593933105 13.78972434997559 24.9648265838623 13.58038425445557 L 14.93768692016602 2.624704360961914 C 14.80833625793457 2.483384132385254 14.6510763168335 2.462284088134766 14.56884670257568 2.462284088134766 M 14.56884670257568 0.9622869491577148 C 15.10831451416016 0.9622869491577148 15.64778137207031 1.178849220275879 16.04419708251953 1.611974716186523 L 26.07133674621582 12.56765365600586 C 27.24575614929199 13.8508243560791 26.3354663848877 15.91796398162842 24.59598731994629 15.91796398162842 L 4.541706085205078 15.91796398162842 C 2.802236557006836 15.91796398162842 1.891937255859375 13.8508243560791 3.066356658935547 12.56765365600586 L 13.09349632263184 1.611974716186523 C 13.48991203308105 1.178849220275879 14.02937889099121 0.9622869491577148 14.56884670257568 0.9622869491577148 Z" stroke="none" fill="#201111"/>
  </g>
</svg>
