<svg xmlns="http://www.w3.org/2000/svg" width="260" height="226.25" viewBox="0 0 260 226.25">
  <g id="Group_64" data-name="Group 64" transform="translate(-1564 -318.209)">
    <text id="Click_or_tap_and_drag_to_rotate_the_camera_" data-name="Click or tap and drag
to rotate the camera
" transform="translate(1694 478.459)" fill="#201111" font-size="25" font-family="Montserrat-Light, Montserrat" font-weight="300"><tspan x="-129.1" y="0">Click or tap and drag</tspan><tspan x="-127.05" y="30">to rotate the camera</tspan><tspan x="0" y="60"></tspan></text>
    <g id="Group_54" data-name="Group 54" transform="translate(721.949 -222)">
      <line id="Line_11" data-name="Line 11" x1="19.184" y1="16.884" transform="translate(918.5 616.5)" fill="none" stroke="#201111" stroke-linecap="round" stroke-width="6"/>
      <g id="tap" transform="translate(929.956 540.459)">
        <g id="Group_46" data-name="Group 46" transform="translate(9.122 5.453)">
          <g id="Group_45" data-name="Group 45" transform="translate(0 0)">
            <path id="Path_46" data-name="Path 46" d="M125.349,104.539,110.674,88.471a7.491,7.491,0,0,0-10.566.023,7.272,7.272,0,0,0-1.889,3.216,7.5,7.5,0,0,0-9.82.673,7.4,7.4,0,0,0-1.893,3.212,7.5,7.5,0,0,0-9.816.677,7.354,7.354,0,0,0-1.873,3.138L67.9,92.519a7.491,7.491,0,0,0-10.566.023,7.414,7.414,0,0,0,0,10.5l26.572,26.475-15.761,2.465a8.721,8.721,0,0,0-7.471,8.583A5.851,5.851,0,0,0,66.53,146.4h36.8a21.364,21.364,0,0,0,15.179-6.265l6.139-6.117a21.306,21.306,0,0,0,.7-29.481Zm-3.458,26.732-6.139,6.117a17.481,17.481,0,0,1-12.42,5.125h-36.8a1.949,1.949,0,0,1-1.952-1.944,4.817,4.817,0,0,1,4.149-4.737L88.3,132.768a1.941,1.941,0,0,0,1.077-3.294L60.093,100.3a3.562,3.562,0,0,1,5.047-5.028l19.527,19.456A1.95,1.95,0,0,0,88,113.347a1.937,1.937,0,0,0-.574-1.377l-7.974-7.945A3.562,3.562,0,0,1,84.5,99l7.978,7.949A1.95,1.95,0,0,0,95.8,105.57a1.937,1.937,0,0,0-.574-1.377l-4.071-4.056a3.562,3.562,0,0,1,5.047-5.028l4.09,4.075c.008,0,0,0,0,0l0,0,0,0,0,0h0a0,0,0,0,1,0,0,1.948,1.948,0,0,0,2.72-2.788l-.168-.167a3.531,3.531,0,0,1,.02-5.028,3.561,3.561,0,0,1,4.961-.066l14.613,16a17.432,17.432,0,0,1-.574,24.115Z" transform="translate(-55.153 -86.302)" fill="#201111" stroke="#201111" stroke-width="0.5"/>
          </g>
        </g>
        <g id="Group_48" data-name="Group 48" transform="translate(0 0)">
          <g id="Group_47" data-name="Group 47">
            <path id="Path_47" data-name="Path 47" d="M30.33,62.694A15.862,15.862,0,1,0,9.361,83.666a1.766,1.766,0,1,0,1.454-3.218,12.334,12.334,0,1,1,16.3-16.3,1.764,1.764,0,1,0,3.214-1.453Z" transform="translate(0 -53.333)" fill="#201111" stroke="#201111" stroke-width="0.5"/>
          </g>
        </g>
      </g>
      <line id="Line_12" data-name="Line 12" x1="19.184" y2="16.884" transform="translate(918.5 633.5)" fill="none" stroke="#201111" stroke-linecap="round" stroke-width="6"/>
      <text id="_360_" data-name="360°" transform="translate(976 643)" fill="#201111" font-size="25" font-family="Montserrat-SemiBold, Montserrat" font-weight="600"><tspan x="-28.8" y="0">360°</tspan></text>
      <line id="Line_13" data-name="Line 13" y1="16.884" x2="19.184" transform="translate(1010 616.5)" fill="none" stroke="#201111" stroke-linecap="round" stroke-width="6"/>
      <line id="Line_14" data-name="Line 14" x2="19.184" y2="16.884" transform="translate(1010 633.5)" fill="none" stroke="#201111" stroke-linecap="round" stroke-width="6"/>
      <path id="Path_51" data-name="Path 51" d="M-229.7,943.688c-16.291.138-70.246,15.784-70.246,37.866s54.845,39.316,83.847,39.316" transform="translate(1153 -387)" fill="none" stroke="#201111" stroke-linecap="round" stroke-width="7"/>
      <path id="Path_52" data-name="Path 52" d="M-300.688,942.22c16.425.171,80.546,14.506,80.546,38.863,0,24.854-61.969,39.786-79.807,39.786" transform="translate(1312 -387)" fill="none" stroke="#201111" stroke-linecap="round" stroke-width="7"/>
    </g>
  </g>
</svg>
