<svg xmlns="http://www.w3.org/2000/svg" xmlns:xlink="http://www.w3.org/1999/xlink" width="63" height="63" viewBox="0 0 63 63">
  <defs>
    <filter id="Path_133" x="0" y="0" width="63" height="63" filterUnits="userSpaceOnUse">
      <feOffset dy="3" input="SourceAlpha"/>
      <feGaussianBlur stdDeviation="3" result="blur"/>
      <feFlood flood-opacity="0.161"/>
      <feComposite operator="in" in2="blur"/>
      <feComposite in="SourceGraphic"/>
    </filter>
  </defs>
  <g id="Group_156" data-name="Group 156" transform="translate(-966 -818)">
    <g id="Component_4_16" data-name="Component 4 – 16" transform="translate(975 824)">
      <g transform="matrix(1, 0, 0, 1, -9, -6)" filter="url(#Path_133)">
        <path id="Path_133-2" data-name="Path 133" d="M22.5,0A22.5,22.5,0,1,1,0,22.5,22.5,22.5,0,0,1,22.5,0Z" transform="translate(9 6)" fill="#f56f6f"/>
      </g>
      <g id="Group_153" data-name="Group 153" transform="translate(-9.071 -5.092)">
        <g id="Path_138" data-name="Path 138" transform="translate(15.071 20.532)" fill="none">
          <path d="M2.857.4H5.714C7.292.4,8.572.966,8.572,1.663V11.938c0,.7-1.279,1.261-2.857,1.261H2.857C1.279,13.2,0,12.634,0,11.938V1.663C0,.966,1.279.4,2.857.4Z" stroke="none"/>
          <path d="M 2.857176780700684 1.901659965515137 C 2.230486869812012 1.901659965515137 1.761318206787109 2.016138076782227 1.499996662139893 2.118367195129395 L 1.499996662139893 11.48251247406006 C 1.761318206787109 11.58474159240723 2.230486869812012 11.69921970367432 2.857176780700684 11.69921970367432 L 5.714356422424316 11.69921970367432 C 6.341046333312988 11.69921970367432 6.810214996337891 11.58474159240723 7.071536540985107 11.48251247406006 L 7.071536540985107 2.118367195129395 C 6.810214996337891 2.016138076782227 6.341046333312988 1.901659965515137 5.714356422424316 1.901659965515137 L 2.857176780700684 1.901659965515137 M 2.857176780700684 0.4016599655151367 L 5.714356422424316 0.4016599655151367 C 7.2923264503479 0.4016599655151367 8.571537017822266 0.9663896560668945 8.571537017822266 1.663020133972168 L 8.571537017822266 11.93785953521729 C 8.571537017822266 12.63449001312256 7.2923264503479 13.19921970367432 5.714356422424316 13.19921970367432 L 2.857176780700684 13.19921970367432 C 1.2792067527771 13.19921970367432 -3.814697265625e-06 12.63449001312256 -3.814697265625e-06 11.93785953521729 L -3.814697265625e-06 1.663020133972168 C -3.814697265625e-06 0.9663896560668945 1.2792067527771 0.4016599655151367 2.857176780700684 0.4016599655151367 Z" stroke="none" fill="#201111"/>
        </g>
        <g id="Path_164" data-name="Path 164" transform="translate(22.221 38.648) rotate(-90)" fill="none">
          <path d="M5.783.023C6.739.01,8.341,0,10.6,0c1.829,0,4.436.006,6.408.023L21.7,10.04c1.005,2.644.3,5.56-3.574,5.56H4C.122,15.6-.752,14.094.588,10.04Z" stroke="none"/>
          <path d="M 11.14856719970703 1.500002861022949 C 10.95961666107178 1.500002861022949 10.77656650543213 1.500082969665527 10.60051727294922 1.500262260437012 C 8.955570220947266 1.501691818237305 7.649364471435547 1.506242752075195 6.699337959289551 1.513836860656738 L 1.975791931152344 10.62209129333496 C 1.264257431030273 12.8223237991333 1.536781311035156 13.45040130615234 1.638916015625 13.59172248840332 C 1.72509765625 13.71098232269287 2.149877548217773 14.10009288787842 3.997297286987305 14.10009288787842 L 18.12705612182617 14.10009288787842 C 18.87041664123535 14.10009288787842 19.85140609741211 13.96252250671387 20.30341720581055 13.30715274810791 C 20.70868873596191 12.71953392028809 20.71312522888184 11.69437694549561 20.3173770904541 10.62224769592285 L 16.0505256652832 1.516141891479492 C 14.55413722991943 1.506025314331055 12.76012229919434 1.500002861022949 11.14856719970703 1.500002861022949 M 11.14856719970703 -1.9073486328125e-06 C 12.92513370513916 -1.9073486328125e-06 15.22501659393311 0.007760047912597656 17.00761795043945 0.02349281311035156 L 21.70096778869629 10.0398120880127 C 22.7060661315918 12.6840124130249 22.00197601318359 15.60009288787842 18.12705612182617 15.60009288787842 L 3.997297286987305 15.60009288787842 C 0.1223773956298828 15.60009288787842 -0.7520923614501953 14.09422302246094 0.5880470275878906 10.0398120880127 L 5.782516479492188 0.02349281311035156 C 6.739167213439941 0.0098724365234375 8.341496467590332 0.002222061157226562 10.59921646118164 0.0002622604370117188 C 10.7755241394043 8.58306884765625e-05 10.95909023284912 -1.9073486328125e-06 11.14856719970703 -1.9073486328125e-06 Z" stroke="none" fill="#201111"/>
        </g>
      </g>
    </g>
    <g id="Group_154" data-name="Group 154" transform="translate(962.997 547.586)">
      <line id="Line_6" data-name="Line 6" x2="8.539" y2="0.511" transform="translate(45.076 295.913) rotate(45)" fill="none" stroke="#000" stroke-linecap="round" stroke-linejoin="round" stroke-width="2"/>
      <line id="Line_7" data-name="Line 7" y1="0.511" x2="8.539" transform="translate(44.639 301.553) rotate(-45)" fill="none" stroke="#000" stroke-linecap="round" stroke-linejoin="round" stroke-width="2"/>
    </g>
  </g>
</svg>
