<svg xmlns="http://www.w3.org/2000/svg" width="405.221" height="212.494" viewBox="0 0 405.221 212.494">
  <g id="Selaras_Gallery_Logo" data-name="Selaras Gallery Logo" transform="translate(-807.4 -893.3)">
    <g id="Group_125" data-name="Group 125" transform="translate(941.815 1085.588)">
      <g id="Group_124" data-name="Group 124">
        <g id="Group_116" data-name="Group 116" transform="translate(0 3.843)">
          <path id="Path_143" data-name="Path 143" d="M939.354,1076.512v7.028h-1.428l-.11-1.757a4.626,4.626,0,0,1-4.063,1.977c-2.416,0-3.953-1.318-3.953-3.514a2.812,2.812,0,0,1,1.318-2.526c.878-.549,2.086-.769,4.283-.769h2.306v-.549c0-1.977-.988-3.075-2.965-3.075a4.044,4.044,0,0,0-3.4,1.867l-1.1-.988a5.62,5.62,0,0,1,4.612-2.306C937.707,1072.01,939.354,1073.657,939.354,1076.512Zm-1.537,1.977v-.11h-2.2c-2.086,0-2.965.11-3.514.549a1.771,1.771,0,0,0-.659,1.428c0,1.318,1.1,2.087,2.745,2.087C936.389,1082.442,937.816,1080.9,937.816,1078.489Z" transform="translate(-929.8 -1071.9)" fill="#010101"/>
        </g>
        <g id="Group_117" data-name="Group 117" transform="translate(18.01 3.953)">
          <path id="Path_144" data-name="Path 144" d="M953.118,1072.439l-.769,1.318a3.879,3.879,0,0,0-1.537-.33c-1.757,0-3.075,1.318-3.075,3.734v6.369H946.2V1072.11h1.537v1.757a3.6,3.6,0,0,1,3.4-1.867A3.761,3.761,0,0,1,953.118,1072.439Z" transform="translate(-946.2 -1072)" fill="#010101"/>
        </g>
        <g id="Group_118" data-name="Group 118" transform="translate(30.968)">
          <path id="Path_145" data-name="Path 145" d="M964.26,1083.774a4.978,4.978,0,0,1-1.757.33c-1.537,0-2.636-.879-2.636-2.855v-7.358H958v-1.318h1.867v-2.965l1.537-1.208v4.173h2.745v1.318H961.4v7.138c0,1.1.549,1.647,1.428,1.647a5.516,5.516,0,0,0,1.318-.219Z" transform="translate(-958 -1068.4)" fill="#010101"/>
        </g>
        <g id="Group_119" data-name="Group 119" transform="translate(54.578 4.063)">
          <path id="Path_146" data-name="Path 146" d="M979.5,1080.776l1.318-.549a3.32,3.32,0,0,0,3.295,2.2c1.537,0,2.526-.769,2.526-1.977,0-3.075-6.589-1.1-6.589-5.161,0-1.977,1.647-3.185,3.844-3.185a4.137,4.137,0,0,1,4.063,2.416l-1.318.659a3.03,3.03,0,0,0-2.855-1.647c-1.428,0-2.306.549-2.306,1.537,0,2.745,6.589.988,6.589,5.271,0,2.306-1.867,3.4-4.063,3.4A4.616,4.616,0,0,1,979.5,1080.776Z" transform="translate(-979.5 -1072.1)" fill="#010101"/>
        </g>
        <g id="Group_120" data-name="Group 120" transform="translate(71.27 3.953)">
          <path id="Path_147" data-name="Path 147" d="M1005.023,1077.82c0,3.4-1.757,5.93-5.051,5.93a4.394,4.394,0,0,1-3.734-1.757v6.259H994.7V1072.22h1.537v1.537a4.691,4.691,0,0,1,3.734-1.757C1003.046,1072,1005.023,1074.306,1005.023,1077.82Zm-1.647,0c0-2.745-1.428-4.5-3.734-4.5s-3.624,1.757-3.624,4.5c0,2.636,1.318,4.5,3.624,4.5C1002.167,1082.323,1003.375,1080.456,1003.375,1077.82Z" transform="translate(-994.7 -1072)" fill="#010101"/>
        </g>
        <g id="Group_121" data-name="Group 121" transform="translate(88.402 3.843)">
          <path id="Path_148" data-name="Path 148" d="M1019.854,1076.512v7.028h-1.427l-.11-1.757a4.626,4.626,0,0,1-4.063,1.977c-2.416,0-3.953-1.318-3.953-3.514a2.812,2.812,0,0,1,1.318-2.526c.879-.549,2.087-.769,4.283-.769h2.306v-.549c0-1.977-.988-3.075-2.965-3.075a4.044,4.044,0,0,0-3.4,1.867l-1.1-.988a5.62,5.62,0,0,1,4.612-2.306C1018.207,1072.01,1019.854,1073.657,1019.854,1076.512Zm-1.647,1.977v-.11h-2.2c-2.086,0-2.965.11-3.514.549a1.771,1.771,0,0,0-.659,1.428c0,1.318,1.1,2.087,2.745,2.087C1016.889,1082.442,1018.207,1080.9,1018.207,1078.489Z" transform="translate(-1010.3 -1071.9)" fill="#010101"/>
        </g>
        <g id="Group_122" data-name="Group 122" transform="translate(105.423 3.953)">
          <path id="Path_149" data-name="Path 149" d="M1025.8,1077.93c0-2.965,1.647-5.93,5.161-5.93a4.755,4.755,0,0,1,4.612,3.185l-1.537.549a3.261,3.261,0,0,0-3.075-2.306c-2.416,0-3.514,2.2-3.514,4.5s1.1,4.393,3.514,4.393a3.037,3.037,0,0,0,2.965-2.306l1.428.549a4.575,4.575,0,0,1-4.5,3.185C1027.667,1083.75,1025.8,1081,1025.8,1077.93Z" transform="translate(-1025.8 -1072)" fill="#010101"/>
        </g>
        <g id="Group_123" data-name="Group 123" transform="translate(121.566 3.843)">
          <path id="Path_150" data-name="Path 150" d="M1050.493,1078.269h-8.346c0,2.526,1.428,3.953,3.624,3.953a4.267,4.267,0,0,0,3.294-1.428l1.1.988a5.387,5.387,0,0,1-4.393,1.867c-3.4,0-5.271-2.635-5.271-5.82s1.757-5.93,5.051-5.93c3.514,0,4.942,2.745,4.942,5.271A1.834,1.834,0,0,1,1050.493,1078.269Zm-8.236-1.318h6.919v-.329a3.263,3.263,0,0,0-3.4-3.295A3.494,3.494,0,0,0,1042.257,1076.952Z" transform="translate(-1040.5 -1071.9)" fill="#010101"/>
        </g>
      </g>
    </g>
    <g id="Group_126" data-name="Group 126" transform="translate(807.839 1079.109)">
      <path id="Path_151" data-name="Path 151" d="M807.8,1062.5" transform="translate(-807.8 -1062.5)" fill="none" stroke="#010101" stroke-miterlimit="10" stroke-width="4"/>
    </g>
    <g id="Group_127" data-name="Group 127" transform="translate(1209.546 1079.109)">
      <path id="Path_152" data-name="Path 152" d="M1173.6,1062.5" transform="translate(-1173.6 -1062.5)" fill="none" stroke="#010101" stroke-miterlimit="10" stroke-width="4"/>
    </g>
    <g id="Group_136" data-name="Group 136" transform="translate(832.767 1012.89)">
      <g id="Group_135" data-name="Group 135">
        <g id="Group_128" data-name="Group 128">
          <path id="Path_153" data-name="Path 153" d="M838.736,1051.617a22.423,22.423,0,0,1-8.236-4.5l2.636-5.6a21.534,21.534,0,0,0,7.358,4.173,26.35,26.35,0,0,0,9.225,1.647c4.173,0,7.248-.659,9.334-2.087a6.461,6.461,0,0,0,3.075-5.6,5.541,5.541,0,0,0-1.647-4.173,10.458,10.458,0,0,0-4.173-2.416q-2.471-.824-6.918-1.977a57.9,57.9,0,0,1-9.115-2.745,14.983,14.983,0,0,1-5.93-4.173c-1.647-1.867-2.416-4.393-2.416-7.577a12.977,12.977,0,0,1,2.086-7.248,14.427,14.427,0,0,1,6.369-5.161,25.274,25.274,0,0,1,10.652-1.977,32.972,32.972,0,0,1,8.675,1.1,23.8,23.8,0,0,1,7.358,3.294l-2.306,5.71a28.572,28.572,0,0,0-6.7-3.075,26.458,26.458,0,0,0-7.028-.988c-4.063,0-7.028.769-9.115,2.2a6.9,6.9,0,0,0-3.075,5.71,5.246,5.246,0,0,0,1.757,4.173,12.639,12.639,0,0,0,4.283,2.526,70.85,70.85,0,0,0,6.918,1.867,57.867,57.867,0,0,1,9.115,2.745,14.983,14.983,0,0,1,5.93,4.173,10.915,10.915,0,0,1,2.416,7.468,12.469,12.469,0,0,1-2.2,7.138,14.765,14.765,0,0,1-6.479,5.161,27.815,27.815,0,0,1-10.762,1.867A30.162,30.162,0,0,1,838.736,1051.617Z" transform="translate(-830.5 -1002.2)" fill="#010101"/>
        </g>
        <g id="Group_129" data-name="Group 129" transform="translate(52.382 0.659)">
          <path id="Path_154" data-name="Path 154" d="M914.439,1046.507v6.26H878.2V1002.8h35.251v6.26H885.338v15.374h25.038v6.04H885.338v16.143h29.1Z" transform="translate(-878.2 -1002.8)" fill="#010101"/>
        </g>
        <g id="Group_130" data-name="Group 130" transform="translate(103.776 0.659)">
          <path id="Path_155" data-name="Path 155" d="M925,1002.8h7.138v43.707h27.015v6.26H925Z" transform="translate(-925 -1002.8)" fill="#010101"/>
        </g>
        <g id="Group_131" data-name="Group 131" transform="translate(142.431 0.659)">
          <path id="Path_156" data-name="Path 156" d="M999.624,1040.247H973.048l-5.491,12.519H960.2l22.622-49.966h7.028l22.732,49.966h-7.467Zm-2.526-5.71-10.762-24.489-10.762,24.489Z" transform="translate(-960.2 -1002.8)" fill="#010101"/>
        </g>
        <g id="Group_132" data-name="Group 132" transform="translate(205.795 0.549)">
          <path id="Path_157" data-name="Path 157" d="M1051.284,1052.776l-10.762-15.374c-1.318.11-2.416.11-3.185.11h-12.3v15.155H1017.9V1002.7h19.437c6.479,0,11.531,1.537,15.264,4.612s5.6,7.358,5.6,12.739a17.182,17.182,0,0,1-2.855,9.883,15.645,15.645,0,0,1-8.126,5.93l11.86,16.8h-7.8Zm-3.734-24.16a11.422,11.422,0,0,0,0-16.692c-2.416-1.977-5.82-2.855-10.323-2.855h-12.08v22.512h12.08C1041.73,1031.472,1045.134,1030.483,1047.55,1028.616Z" transform="translate(-1017.9 -1002.7)" fill="#010101"/>
        </g>
        <g id="Group_133" data-name="Group 133" transform="translate(253.675 0.659)">
          <path id="Path_158" data-name="Path 158" d="M1100.924,1040.247h-26.575l-5.491,12.519H1061.5l22.622-49.966h7.028l22.732,49.966h-7.468Zm-2.526-5.71-10.762-24.489-10.762,24.489Z" transform="translate(-1061.5 -1002.8)" fill="#010101"/>
        </g>
        <g id="Group_134" data-name="Group 134" transform="translate(312.536)">
          <path id="Path_159" data-name="Path 159" d="M1123.336,1051.617a22.423,22.423,0,0,1-8.236-4.5l2.636-5.6a21.534,21.534,0,0,0,7.358,4.173,26.351,26.351,0,0,0,9.225,1.647c4.173,0,7.248-.659,9.334-2.087a6.461,6.461,0,0,0,3.075-5.6,5.541,5.541,0,0,0-1.647-4.173,10.459,10.459,0,0,0-4.173-2.416q-2.471-.824-6.919-1.977a57.9,57.9,0,0,1-9.115-2.745,14.983,14.983,0,0,1-5.93-4.173c-1.647-1.867-2.416-4.393-2.416-7.577a12.976,12.976,0,0,1,2.087-7.248,14.428,14.428,0,0,1,6.369-5.161,25.275,25.275,0,0,1,10.652-1.977,32.973,32.973,0,0,1,8.676,1.1,23.793,23.793,0,0,1,7.358,3.294l-2.306,5.71a28.577,28.577,0,0,0-6.7-3.075,26.458,26.458,0,0,0-7.028-.988c-4.063,0-7.028.769-9.115,2.2a6.9,6.9,0,0,0-3.075,5.71,5.246,5.246,0,0,0,1.757,4.173,12.641,12.641,0,0,0,4.283,2.526,70.853,70.853,0,0,0,6.918,1.867,57.874,57.874,0,0,1,9.115,2.745,14.984,14.984,0,0,1,5.93,4.173,10.916,10.916,0,0,1,2.416,7.468,12.468,12.468,0,0,1-2.2,7.138,14.766,14.766,0,0,1-6.479,5.161,27.815,27.815,0,0,1-10.762,1.867A30.881,30.881,0,0,1,1123.336,1051.617Z" transform="translate(-1115.1 -1002.2)" fill="#010101"/>
        </g>
      </g>
    </g>
    <path id="Path_160" data-name="Path 160" d="M1212.621,1039.9H1193.4v-5.491h13.727V898.791H812.891v135.623H825.52v5.491H807.4V893.3h405.221Z" transform="translate(0 0)" fill="#f79052"/>
  </g>
</svg>
