<svg id="Group_135" data-name="Group 135" xmlns="http://www.w3.org/2000/svg" width="126.41" height="18.38" viewBox="0 0 126.41 18.38">
  <g id="Group_128" data-name="Group 128">
    <path id="Path_153" data-name="Path 153" d="M833.464,1019.982a8.065,8.065,0,0,1-2.964-1.62l.948-2.015a7.749,7.749,0,0,0,2.648,1.5,9.482,9.482,0,0,0,3.319.593,5.956,5.956,0,0,0,3.359-.751,2.325,2.325,0,0,0,1.106-2.015,1.994,1.994,0,0,0-.593-1.5,3.763,3.763,0,0,0-1.5-.869q-.889-.3-2.49-.711a20.841,20.841,0,0,1-3.28-.988,5.393,5.393,0,0,1-2.134-1.5,3.967,3.967,0,0,1-.869-2.727,4.67,4.67,0,0,1,.751-2.608,5.192,5.192,0,0,1,2.292-1.857,9.094,9.094,0,0,1,3.833-.711,11.873,11.873,0,0,1,3.122.4,8.561,8.561,0,0,1,2.647,1.186l-.83,2.055a10.278,10.278,0,0,0-2.41-1.106,9.523,9.523,0,0,0-2.529-.356,5.734,5.734,0,0,0-3.28.79,2.484,2.484,0,0,0-1.106,2.055,1.888,1.888,0,0,0,.632,1.5,4.545,4.545,0,0,0,1.541.909,25.418,25.418,0,0,0,2.489.672,20.832,20.832,0,0,1,3.28.988,5.391,5.391,0,0,1,2.134,1.5,3.927,3.927,0,0,1,.87,2.687,4.486,4.486,0,0,1-.79,2.568,5.311,5.311,0,0,1-2.331,1.857,10.007,10.007,0,0,1-3.873.672A10.851,10.851,0,0,1,833.464,1019.982Z" transform="translate(-830.5 -1002.2)" fill="#fff"/>
  </g>
  <g id="Group_129" data-name="Group 129" transform="translate(18.849 0.237)">
    <path id="Path_154" data-name="Path 154" d="M891.24,1018.527v2.252H878.2V1002.8h12.684v2.252H880.769v5.532h9.01v2.173h-9.01v5.809H891.24Z" transform="translate(-878.2 -1002.8)" fill="#fff"/>
  </g>
  <g id="Group_130" data-name="Group 130" transform="translate(37.342 0.237)">
    <path id="Path_155" data-name="Path 155" d="M925,1002.8h2.568v15.727h9.721v2.252H925Z" transform="translate(-925 -1002.8)" fill="#fff"/>
  </g>
  <g id="Group_131" data-name="Group 131" transform="translate(51.252 0.237)">
    <path id="Path_156" data-name="Path 156" d="M974.386,1016.275h-9.563l-1.976,4.5H960.2l8.14-17.98h2.529l8.18,17.98h-2.687Zm-.909-2.055-3.873-8.812-3.872,8.812Z" transform="translate(-960.2 -1002.8)" fill="#fff"/>
  </g>
  <g id="Group_132" data-name="Group 132" transform="translate(74.052 0.198)">
    <path id="Path_157" data-name="Path 157" d="M1029.913,1020.719l-3.873-5.532c-.474.04-.869.04-1.146.04h-4.426v5.453H1017.9V1002.7h6.994a8.361,8.361,0,0,1,5.493,1.66,5.632,5.632,0,0,1,2.015,4.584,6.183,6.183,0,0,1-1.027,3.556,5.629,5.629,0,0,1-2.924,2.134l4.268,6.046h-2.805Zm-1.344-8.693a4.11,4.11,0,0,0,0-6.006,5.7,5.7,0,0,0-3.714-1.027h-4.347v8.1h4.347A6.2,6.2,0,0,0,1028.569,1012.026Z" transform="translate(-1017.9 -1002.7)" fill="#fff"/>
  </g>
  <g id="Group_133" data-name="Group 133" transform="translate(91.281 0.237)">
    <path id="Path_158" data-name="Path 158" d="M1075.686,1016.275h-9.563l-1.976,4.5H1061.5l8.14-17.98h2.529l8.18,17.98h-2.687Zm-.909-2.055-3.873-8.812-3.873,8.812Z" transform="translate(-1061.5 -1002.8)" fill="#fff"/>
  </g>
  <g id="Group_134" data-name="Group 134" transform="translate(112.461)">
    <path id="Path_159" data-name="Path 159" d="M1118.064,1019.982a8.066,8.066,0,0,1-2.964-1.62l.948-2.015a7.748,7.748,0,0,0,2.647,1.5,9.482,9.482,0,0,0,3.319.593,5.956,5.956,0,0,0,3.359-.751,2.325,2.325,0,0,0,1.107-2.015,2,2,0,0,0-.593-1.5,3.765,3.765,0,0,0-1.5-.869q-.89-.3-2.49-.711a20.849,20.849,0,0,1-3.28-.988,5.4,5.4,0,0,1-2.134-1.5,3.968,3.968,0,0,1-.869-2.727,4.67,4.67,0,0,1,.751-2.608,5.193,5.193,0,0,1,2.292-1.857,9.094,9.094,0,0,1,3.833-.711,11.871,11.871,0,0,1,3.122.4,8.563,8.563,0,0,1,2.647,1.186l-.83,2.055a10.278,10.278,0,0,0-2.411-1.106,9.52,9.52,0,0,0-2.529-.356,5.733,5.733,0,0,0-3.28.79,2.484,2.484,0,0,0-1.106,2.055,1.887,1.887,0,0,0,.632,1.5,4.541,4.541,0,0,0,1.541.909,25.432,25.432,0,0,0,2.49.672,20.841,20.841,0,0,1,3.28.988,5.39,5.39,0,0,1,2.134,1.5,3.927,3.927,0,0,1,.869,2.687,4.486,4.486,0,0,1-.79,2.568,5.311,5.311,0,0,1-2.331,1.857,10.008,10.008,0,0,1-3.873.672A11.108,11.108,0,0,1,1118.064,1019.982Z" transform="translate(-1115.1 -1002.2)" fill="#fff"/>
  </g>
</svg>
