<svg xmlns="http://www.w3.org/2000/svg" xmlns:xlink="http://www.w3.org/1999/xlink" width="63" height="63" viewBox="0 0 63 63">
  <defs>
    <filter id="Ellipse_2" x="0" y="0" width="63" height="63" filterUnits="userSpaceOnUse">
      <feOffset dy="3" input="SourceAlpha"/>
      <feGaussianBlur stdDeviation="3" result="blur"/>
      <feFlood flood-opacity="0.161"/>
      <feComposite operator="in" in2="blur"/>
      <feComposite in="SourceGraphic"/>
    </filter>
  </defs>
  <g id="Group_31" data-name="Group 31" transform="translate(-1770.66 -63.66)">
    <g transform="matrix(1, 0, 0, 1, 1770.66, 63.66)" filter="url(#Ellipse_2)">
      <circle id="Ellipse_2-2" data-name="Ellipse 2" cx="22.5" cy="22.5" r="22.5" transform="translate(9 6)" fill="#fff"/>
    </g>
    <path id="iconfinder_00-ELASTOFONT-STORE-READY_user_2703063" d="M16.8,14.46a7.281,7.281,0,1,0-7.607,0c-4.5,1.007-7.651,3.758-7.651,7.088C1.546,24.273,8.746,25,13,25s11.454-.727,11.454-3.452C24.454,18.219,21.3,15.468,16.8,14.46ZM7.219,8.272A5.781,5.781,0,1,1,13,14.043,5.783,5.783,0,0,1,7.219,8.272ZM13,23.5c-6.115,0-9.775-1.29-9.954-1.957,0-3.309,4.468-6,9.954-6s9.948,2.691,9.954,6C22.78,22.209,19.119,23.5,13,23.5Z" transform="translate(1789.614 79.16)" fill="#201111" stroke="#201111" stroke-width="0.5"/>
  </g>
</svg>
