<svg xmlns="http://www.w3.org/2000/svg" xmlns:xlink="http://www.w3.org/1999/xlink" width="63" height="63" viewBox="0 0 63 63">
  <defs>
    <filter id="Ellipse_2" x="0" y="0" width="63" height="63" filterUnits="userSpaceOnUse">
      <feOffset dy="3" input="SourceAlpha"/>
      <feGaussianBlur stdDeviation="3" result="blur"/>
      <feFlood flood-opacity="0.161"/>
      <feComposite operator="in" in2="blur"/>
      <feComposite in="SourceGraphic"/>
    </filter>
  </defs>
  <g id="Group_32" data-name="Group 32" transform="translate(-1771 -64)">
    <g transform="matrix(1, 0, 0, 1, 1771, 64)" filter="url(#Ellipse_2)">
      <circle id="Ellipse_2-2" data-name="Ellipse 2" cx="22.5" cy="22.5" r="22.5" transform="translate(9 6)" fill="#fff"/>
    </g>
    <g id="iconfinder_Basket_2_2205959" transform="translate(1786.496 78.633)">
      <path id="Path_31" data-name="Path 31" d="M17.3,38a2.3,2.3,0,1,0,2.3,2.3A2.308,2.308,0,0,0,17.3,38Zm0,3.452A1.151,1.151,0,1,1,18.452,40.3,1.154,1.154,0,0,1,17.3,41.452Z" transform="translate(-5.521 -15.29)" fill="#201111" stroke="#201111" stroke-width="0.5"/>
      <path id="Path_32" data-name="Path 32" d="M35.3,38a2.3,2.3,0,1,0,2.3,2.3A2.308,2.308,0,0,0,35.3,38Zm0,3.452A1.151,1.151,0,1,1,36.452,40.3,1.154,1.154,0,0,1,35.3,41.452Z" transform="translate(-13.166 -15.29)" fill="#201111" stroke="#201111" stroke-width="0.5"/>
      <path id="Path_33" data-name="Path 33" d="M25.932,6.257a2.272,2.272,0,0,0-1.783-.805H8.213l-.23-1.5A2.348,2.348,0,0,0,5.682,2H2V3.151H5.682a1.127,1.127,0,0,1,1.151.978l2.416,15.59a2.392,2.392,0,0,0,2.3,1.9H23.861V20.467H11.55a1.17,1.17,0,0,1-1.151-.978l-.23-1.381H22.94a2.384,2.384,0,0,0,2.3-2.013L26.449,8.04A2.075,2.075,0,0,0,25.932,6.257ZM25.3,7.925l-1.208,8.054a1.171,1.171,0,0,1-1.151,1.036H10L8.386,6.66H24.148a1.358,1.358,0,0,1,.92.4A.881.881,0,0,1,25.3,7.925Z" fill="#201111" stroke="#201111" stroke-width="0.5"/>
    </g>
  </g>
</svg>
