<svg xmlns="http://www.w3.org/2000/svg" xmlns:xlink="http://www.w3.org/1999/xlink" width="63" height="63" viewBox="0 0 63 63">
  <defs>
    <filter id="Ellipse_3" x="0" y="0" width="63" height="63" filterUnits="userSpaceOnUse">
      <feOffset dy="3" input="SourceAlpha"/>
      <feGaussianBlur stdDeviation="3" result="blur"/>
      <feFlood flood-opacity="0.161"/>
      <feComposite operator="in" in2="blur"/>
      <feComposite in="SourceGraphic"/>
    </filter>
  </defs>
  <g id="Group_30" data-name="Group 30" transform="translate(-1770.62 -153.62)">
    <g transform="matrix(1, 0, 0, 1, 1770.62, 153.62)" filter="url(#Ellipse_3)">
      <circle id="Ellipse_3-2" data-name="Ellipse 3" cx="22.5" cy="22.5" r="22.5" transform="translate(9 6)" fill="#fff"/>
    </g>
    <path id="iconfinder_47.Explore_290103" d="M17.045,31.089A14.045,14.045,0,1,1,31.089,17.045,14.045,14.045,0,0,1,17.045,31.089Zm0-26.752A12.707,12.707,0,1,0,29.752,17.045,12.707,12.707,0,0,0,17.045,4.338Zm10.7,13.376h-.669a.669.669,0,0,1,0-1.338h.669a.669.669,0,0,1,0,1.338ZM23.718,23.2a.631.631,0,0,1-.175.344.651.651,0,0,1-.755.115l.039.039.005.005h0l-.31-.13a41.425,41.425,0,0,1-6.6-3.3,7.554,7.554,0,0,1-1.2-.9c-.03-.029-1.664-1.613-4.337-8.109h0l.045.045c-.007-.013-.008-.028-.013-.041a.646.646,0,0,1-.025-.442.624.624,0,0,1,.153-.272.647.647,0,0,1,.736-.121.155.155,0,0,1,.019.007l-.015-.017-.029-.028h0c6.5,2.673,8.08,4.307,8.109,4.337s1.664,1.614,4.337,8.109h0l-.029-.029-.015-.015a.724.724,0,0,1,.032.1A.659.659,0,0,1,23.718,23.2Zm-5.306-7.538c-.014-.014-1.348-1.289-6.144-3.393,2.1,4.8,3.381,6.131,3.407,6.158s1.348,1.289,6.144,3.393C19.716,17.024,18.44,15.69,18.413,15.662Zm-1.368.714a.669.669,0,1,1-.669.669A.668.668,0,0,1,17.045,16.376Zm0-8.694a.669.669,0,0,1-.669-.669V6.344a.669.669,0,0,1,1.338,0v.669A.669.669,0,0,1,17.045,7.682Zm0,18.726a.668.668,0,0,1,.669.669v.669a.669.669,0,0,1-1.338,0v-.669A.668.668,0,0,1,17.045,26.408ZM7.013,17.713H6.344a.669.669,0,0,1,0-1.338h.669a.669.669,0,0,1,0,1.338Z" transform="translate(1785.121 165.12)" fill="#201111" fill-rule="evenodd"/>
    <g id="Group_100" data-name="Group 100" transform="translate(1794.37 174.62)">
      <line id="Line_21" data-name="Line 21" y2="0.5" transform="translate(15.354 0) rotate(45)" fill="none" stroke="#201111" stroke-linecap="round" stroke-width="1.5"/>
      <line id="Line_22" data-name="Line 22" y2="0.5" transform="translate(15.354 15.104) rotate(135)" fill="none" stroke="#201111" stroke-linecap="round" stroke-width="1.5"/>
      <line id="Line_23" data-name="Line 23" y1="0.5" transform="translate(0.354 0.354) rotate(135)" fill="none" stroke="#201111" stroke-linecap="round" stroke-width="1.5"/>
      <line id="Line_24" data-name="Line 24" y1="0.5" transform="translate(0.354 14.75) rotate(45)" fill="none" stroke="#201111" stroke-linecap="round" stroke-width="1.5"/>
    </g>
  </g>
</svg>
