<svg xmlns="http://www.w3.org/2000/svg" xmlns:xlink="http://www.w3.org/1999/xlink" width="63" height="63" viewBox="0 0 63 63">
  <defs>
    <filter id="Ellipse_3" x="0" y="0" width="63" height="63" filterUnits="userSpaceOnUse">
      <feOffset dy="3" input="SourceAlpha"/>
      <feGaussianBlur stdDeviation="3" result="blur"/>
      <feFlood flood-opacity="0.161"/>
      <feComposite operator="in" in2="blur"/>
      <feComposite in="SourceGraphic"/>
    </filter>
  </defs>
  <g id="Component_3_3" data-name="Component 3 – 3" transform="translate(9 6)">
    <g transform="matrix(1, 0, 0, 1, -9, -6)" filter="url(#Ellipse_3)">
      <circle id="Ellipse_3-2" data-name="Ellipse 3" cx="22.5" cy="22.5" r="22.5" transform="translate(9 6)" fill="#fff"/>
    </g>
    <g id="Path_139" data-name="Path 139" transform="translate(15.479 12.643)" fill="none">
      <path d="M3.6.4H1.8A1.8,1.8,0,0,0,0,2.2V16.869a1.8,1.8,0,0,0,1.8,1.8H3.6a1.8,1.8,0,0,0,1.8-1.8V2.2A1.8,1.8,0,0,0,3.6.4Z" stroke="none"/>
      <path d="M 1.800567865371704 1.901664733886719 C 1.634837865829468 1.901664733886719 1.499997854232788 2.036504745483398 1.499997854232788 2.202234268188477 L 1.499997854232788 16.86941337585449 C 1.499997854232788 17.0351448059082 1.634837865829468 17.16998291015625 1.800567865371704 17.16998291015625 L 3.601147890090942 17.16998291015625 C 3.766877889633179 17.16998291015625 3.901717901229858 17.0351448059082 3.901717901229858 16.86941337585449 L 3.901717901229858 2.202234268188477 C 3.901717901229858 2.036504745483398 3.766877889633179 1.901664733886719 3.601147890090942 1.901664733886719 L 1.800567865371704 1.901664733886719 M 1.800567865371704 0.4016647338867188 L 3.601147890090942 0.4016647338867188 C 4.59556770324707 0.4016647338867188 5.401717662811279 1.207803726196289 5.401717662811279 2.202234268188477 L 5.401717662811279 16.86941337585449 C 5.401717662811279 17.86384391784668 4.59556770324707 18.66998291015625 3.601147890090942 18.66998291015625 L 1.800567865371704 18.66998291015625 C 0.8061480522155762 18.66998291015625 -1.9073486328125e-06 17.86384391784668 -1.9073486328125e-06 16.86941337585449 L -1.9073486328125e-06 2.202234268188477 C -1.9073486328125e-06 1.207803726196289 0.8061480522155762 0.4016647338867188 1.800567865371704 0.4016647338867188 Z" stroke="none" fill="#201111"/>
    </g>
    <g id="Polygon_2" data-name="Polygon 2" transform="translate(34.389 10.402) rotate(90)" fill="none">
      <path d="M10.412,1.5a2,2,0,0,1,2.886,0l7.164,7.467a2,2,0,0,1-1.443,3.385H4.691A2,2,0,0,1,3.248,8.971Z" stroke="none"/>
      <path d="M 11.85498046875 2.388765335083008 C 11.77536010742188 2.388765335083008 11.62261009216309 2.408745765686035 11.49419021606445 2.542595863342285 L 4.329910278320312 10.00937557220459 C 4.130901336669922 10.21679592132568 4.182371139526367 10.43817520141602 4.23076057434082 10.55166530609131 C 4.279150009155273 10.6651554107666 4.403249740600586 10.85555553436279 4.690690994262695 10.85555553436279 L 19.0192699432373 10.85555553436279 C 19.30670928955078 10.85555553436279 19.43081092834473 10.6651554107666 19.47920036315918 10.55166530609131 C 19.52758979797363 10.43817520141602 19.57905960083008 10.21680545806885 19.38005065917969 10.00939559936523 L 12.21577072143555 2.542595863342285 C 12.08735084533691 2.408745765686035 11.93460083007812 2.388765335083008 11.85498046875 2.388765335083008 M 11.85497665405273 0.888763427734375 C 12.37975311279297 0.888763427734375 12.90453052520752 1.093870162963867 13.29813003540039 1.504085540771484 L 20.46240997314453 8.97088623046875 C 21.68227005004883 10.24225616455078 20.78120994567871 12.35555553436279 19.0192699432373 12.35555553436279 L 4.690690994262695 12.35555553436279 C 2.928750991821289 12.35555553436279 2.027690887451172 10.24225616455078 3.247550964355469 8.97087574005127 L 10.41183090209961 1.504085540771484 C 10.8054256439209 1.093870162963867 11.3302001953125 0.888763427734375 11.85497665405273 0.888763427734375 Z" stroke="none" fill="#201111"/>
    </g>
  </g>
</svg>
