<svg xmlns="http://www.w3.org/2000/svg" xmlns:xlink="http://www.w3.org/1999/xlink" width="78" height="78" viewBox="0 0 78 78">
  <defs>
    <filter id="Ellipse_3" x="0" y="0" width="78" height="78" filterUnits="userSpaceOnUse">
      <feOffset dy="3" input="SourceAlpha"/>
      <feGaussianBlur stdDeviation="3" result="blur"/>
      <feFlood flood-opacity="0.161"/>
      <feComposite operator="in" in2="blur"/>
      <feComposite in="SourceGraphic"/>
    </filter>
  </defs>
  <g id="Component_2_3" data-name="Component 2 – 3" transform="translate(9 6)">
    <g transform="matrix(1, 0, 0, 1, -9, -6)" filter="url(#Ellipse_3)">
      <circle id="Ellipse_3-2" data-name="Ellipse 3" cx="30" cy="30" r="30" transform="translate(9 6)" fill="#fff"/>
    </g>
    <g id="Group_105" data-name="Group 105" transform="translate(-1781 -160)">
      <g id="Path_141" data-name="Path 141" transform="translate(1812.84 177.57)" fill="none">
        <path d="M4.865-.149H2.433A2.433,2.433,0,0,0,0,2.284V22.5a2.433,2.433,0,0,0,2.433,2.433H4.865A2.433,2.433,0,0,0,7.3,22.5V2.284A2.433,2.433,0,0,0,4.865-.149Z" stroke="none"/>
        <path d="M 2.432729244232178 1.351213455200195 C 1.918419361114502 1.351213455200195 1.499999523162842 1.769632339477539 1.499999523162842 2.283933639526367 L 1.499999523162842 22.50439262390137 C 1.499999523162842 23.0186939239502 1.918419361114502 23.43711280822754 2.432729244232178 23.43711280822754 L 4.86544942855835 23.43711280822754 C 5.379759311676025 23.43711280822754 5.798179626464844 23.0186939239502 5.798179626464844 22.50439262390137 L 5.798179626464844 2.283933639526367 C 5.798179626464844 1.769632339477539 5.379759311676025 1.351213455200195 4.86544942855835 1.351213455200195 L 2.432729244232178 1.351213455200195 M 2.432729244232178 -0.1487865447998047 L 4.86544942855835 -0.1487865447998047 C 6.209009170532227 -0.1487865447998047 7.298179149627686 0.9403724670410156 7.298179149627686 2.283933639526367 L 7.298179149627686 22.50439262390137 C 7.298179149627686 23.84795379638672 6.209009170532227 24.93711280822754 4.86544942855835 24.93711280822754 L 2.432729244232178 24.93711280822754 C 1.089169502258301 24.93711280822754 -4.76837158203125e-07 23.84795379638672 -4.76837158203125e-07 22.50439262390137 L -4.76837158203125e-07 2.283933639526367 C -4.76837158203125e-07 0.9403724670410156 1.089169502258301 -0.1487865447998047 2.432729244232178 -0.1487865447998047 Z" stroke="none" fill="#201111"/>
      </g>
      <g id="Path_140" data-name="Path 140" transform="translate(1802.84 177.57)" fill="none">
        <path d="M4.865-.149H2.433A2.433,2.433,0,0,0,0,2.284V22.5a2.433,2.433,0,0,0,2.433,2.433H4.865A2.433,2.433,0,0,0,7.3,22.5V2.284A2.433,2.433,0,0,0,4.865-.149Z" stroke="none"/>
        <path d="M 2.432729244232178 1.351213455200195 C 1.918419361114502 1.351213455200195 1.499999523162842 1.769632339477539 1.499999523162842 2.283933639526367 L 1.499999523162842 22.50439262390137 C 1.499999523162842 23.0186939239502 1.918419361114502 23.43711280822754 2.432729244232178 23.43711280822754 L 4.86544942855835 23.43711280822754 C 5.379759311676025 23.43711280822754 5.798179626464844 23.0186939239502 5.798179626464844 22.50439262390137 L 5.798179626464844 2.283933639526367 C 5.798179626464844 1.769632339477539 5.379759311676025 1.351213455200195 4.86544942855835 1.351213455200195 L 2.432729244232178 1.351213455200195 M 2.432729244232178 -0.1487865447998047 L 4.86544942855835 -0.1487865447998047 C 6.209009170532227 -0.1487865447998047 7.298179149627686 0.9403724670410156 7.298179149627686 2.283933639526367 L 7.298179149627686 22.50439262390137 C 7.298179149627686 23.84795379638672 6.209009170532227 24.93711280822754 4.86544942855835 24.93711280822754 L 2.432729244232178 24.93711280822754 C 1.089169502258301 24.93711280822754 -4.76837158203125e-07 23.84795379638672 -4.76837158203125e-07 22.50439262390137 L -4.76837158203125e-07 2.283933639526367 C -4.76837158203125e-07 0.9403724670410156 1.089169502258301 -0.1487865447998047 2.432729244232178 -0.1487865447998047 Z" stroke="none" fill="#201111"/>
      </g>
    </g>
  </g>
</svg>
