<svg xmlns="http://www.w3.org/2000/svg" xmlns:xlink="http://www.w3.org/1999/xlink" width="78" height="78" viewBox="0 0 78 78">
  <defs>
    <filter id="Ellipse_3" x="0" y="0" width="78" height="78" filterUnits="userSpaceOnUse">
      <feOffset dy="3" input="SourceAlpha"/>
      <feGaussianBlur stdDeviation="3" result="blur"/>
      <feFlood flood-opacity="0.161"/>
      <feComposite operator="in" in2="blur"/>
      <feComposite in="SourceGraphic"/>
    </filter>
  </defs>
  <g id="Component_2_8" data-name="Component 2 – 8" transform="translate(9 6)">
    <g transform="matrix(1, 0, 0, 1, -9, -6)" filter="url(#Ellipse_3)">
      <circle id="Ellipse_3-2" data-name="Ellipse 3" cx="30" cy="30" r="30" transform="translate(9 6)" fill="#fff"/>
    </g>
    <g id="Polygon_3" data-name="Polygon 3" transform="translate(42.691 14) rotate(90)" fill="none">
      <path d="M13.645,3.065a3,3,0,0,1,4.745,0l9.9,12.792a3,3,0,0,1-2.372,4.836H6.116a3,3,0,0,1-2.372-4.836Z" stroke="none"/>
      <path d="M 16.01708984375 3.401260375976562 C 15.54946899414062 3.401260375976562 15.11713027954102 3.613340377807617 14.83090972900391 3.983131408691406 L 4.929550170898438 16.7752799987793 C 4.571208953857422 17.23824119567871 4.511199951171875 17.82842063903809 4.76902961730957 18.3540210723877 C 5.026859283447266 18.8796215057373 5.530300140380859 19.19341087341309 6.115730285644531 19.19341087341309 L 25.91844940185547 19.19341087341309 C 26.50387954711914 19.19341087341309 27.00732040405273 18.8796215057373 27.26515007019043 18.3540210723877 C 27.52297973632812 17.82842063903809 27.46297073364258 17.23824119567871 27.10462951660156 16.7752799987793 L 17.20327949523926 3.983131408691406 C 16.91704940795898 3.613340377807617 16.48469924926758 3.401260375976562 16.01708984375 3.401260375976562 M 16.01708984375 1.901264190673828 C 16.90302276611328 1.901264190673828 17.78895568847656 2.289176940917969 18.38945960998535 3.065000534057617 L 28.29081916809082 15.85715103149414 C 29.81686973571777 17.8287410736084 28.41164016723633 20.69341087341309 25.91844940185547 20.69341087341309 L 6.115730285644531 20.69341087341309 C 3.622539520263672 20.69341087341309 2.217309951782227 17.8287410736084 3.74336051940918 15.85715103149414 L 13.64472007751465 3.065000534057617 C 14.24522399902344 2.289176940917969 15.13115692138672 1.901264190673828 16.01708984375 1.901264190673828 Z" stroke="none" fill="#201111"/>
    </g>
  </g>
</svg>
