<svg xmlns="http://www.w3.org/2000/svg" xmlns:xlink="http://www.w3.org/1999/xlink" width="63" height="63" viewBox="0 0 63 63">
  <defs>
    <filter id="Path_133" x="0" y="0" width="63" height="63" filterUnits="userSpaceOnUse">
      <feOffset dy="3" input="SourceAlpha"/>
      <feGaussianBlur stdDeviation="3" result="blur"/>
      <feFlood flood-opacity="0.161"/>
      <feComposite operator="in" in2="blur"/>
      <feComposite in="SourceGraphic"/>
    </filter>
  </defs>
  <g id="Component_4_3" data-name="Component 4 – 3" transform="translate(9 6)">
    <g transform="matrix(1, 0, 0, 1, -9, -6)" filter="url(#Path_133)">
      <path id="Path_133-2" data-name="Path 133" d="M22.5,0A22.5,22.5,0,1,1,0,22.5,22.5,22.5,0,0,1,22.5,0Z" transform="translate(9 6)" fill="#fff"/>
    </g>
    <g id="Path_138" data-name="Path 138" transform="translate(23.986 12.643)" fill="none">
      <path d="M1.8.4H3.6A1.8,1.8,0,0,1,5.4,2.2V16.869a1.8,1.8,0,0,1-1.8,1.8H1.8a1.8,1.8,0,0,1-1.8-1.8V2.2A1.8,1.8,0,0,1,1.8.4Z" stroke="none"/>
      <path d="M 1.800492286682129 1.90165901184082 C 1.634802341461182 1.90165901184082 1.500002145767212 2.036458969116211 1.500002145767212 2.202150344848633 L 1.500002145767212 16.86864852905273 C 1.500002145767212 17.03433990478516 1.634802341461182 17.16913986206055 1.800492286682129 17.16913986206055 L 3.600972175598145 17.16913986206055 C 3.766662120819092 17.16913986206055 3.901462078094482 17.03433990478516 3.901462078094482 16.86864852905273 L 3.901462078094482 2.202150344848633 C 3.901462078094482 2.036458969116211 3.766662120819092 1.90165901184082 3.600972175598145 1.90165901184082 L 1.800492286682129 1.90165901184082 M 1.800492286682129 0.4016590118408203 L 3.600972175598145 0.4016590118408203 C 4.595362186431885 0.4016590118408203 5.401462078094482 1.207769393920898 5.401462078094482 2.202150344848633 L 5.401462078094482 16.86864852905273 C 5.401462078094482 17.86303901672363 4.595362186431885 18.66913986206055 3.600972175598145 18.66913986206055 L 1.800492286682129 18.66913986206055 C 0.8061022758483887 18.66913986206055 2.384185791015625e-06 17.86303901672363 2.384185791015625e-06 16.86864852905273 L 2.384185791015625e-06 2.202150344848633 C 2.384185791015625e-06 1.207769393920898 0.8061022758483887 0.4016590118408203 1.800492286682129 0.4016590118408203 Z" stroke="none" fill="#201111"/>
    </g>
    <g id="Polygon_1" data-name="Polygon 1" transform="translate(10.479 34.112) rotate(-90)" fill="none">
      <path d="M10.412,1.5a2,2,0,0,1,2.886,0L20.462,8.97a2,2,0,0,1-1.443,3.385H4.691A2,2,0,0,1,3.248,8.97Z" stroke="none"/>
      <path d="M 11.85497951507568 2.388689041137695 C 11.77535915374756 2.388689041137695 11.62262916564941 2.408669471740723 11.49419975280762 2.542509078979492 L 4.330068588256836 10.00879859924316 C 4.131050109863281 10.21620941162109 4.182519912719727 10.43757915496826 4.23090934753418 10.55107879638672 C 4.279298782348633 10.66457939147949 4.403400421142578 10.85497856140137 4.690849304199219 10.85497856140137 L 19.01910972595215 10.85497856140137 C 19.30656051635742 10.85497856140137 19.43066024780273 10.66457939147949 19.47904968261719 10.55107879638672 C 19.52743911743164 10.43757915496826 19.57890892028809 10.21620941162109 19.3798999786377 10.00879859924316 L 12.21573925018311 2.542498588562012 C 12.08732986450195 2.408669471740723 11.93459987640381 2.388689041137695 11.85497951507568 2.388689041137695 M 11.85497951507568 0.8886861801147461 C 12.37973976135254 0.8886861801147461 12.90449905395508 1.093784332275391 13.2980899810791 1.503978729248047 L 20.46222877502441 8.970269203186035 C 21.68212890625 10.24162864685059 20.78108024597168 12.35497856140137 19.01910972595215 12.35497856140137 L 4.690849304199219 12.35497856140137 C 2.928878784179688 12.35497856140137 2.027830123901367 10.24162864685059 3.247730255126953 8.970269203186035 L 10.41186904907227 1.503978729248047 C 10.80545997619629 1.093784332275391 11.33021926879883 0.8886861801147461 11.85497951507568 0.8886861801147461 Z" stroke="none" fill="#201111"/>
    </g>
  </g>
</svg>
