<svg xmlns="http://www.w3.org/2000/svg" xmlns:xlink="http://www.w3.org/1999/xlink" width="198" height="198" viewBox="0 0 198 198">
  <defs>
    <filter id="Ellipse_3" x="0" y="0" width="198" height="198" filterUnits="userSpaceOnUse">
      <feOffset dy="3" input="SourceAlpha"/>
      <feGaussianBlur stdDeviation="3" result="blur"/>
      <feFlood flood-opacity="0.161"/>
      <feComposite operator="in" in2="blur"/>
      <feComposite in="SourceGraphic"/>
    </filter>
  </defs>
  <g id="Group_30" data-name="Group 30" transform="translate(-1770.621 -153.62)">
    <g transform="matrix(1, 0, 0, 1, 1770.62, 153.62)" filter="url(#Ellipse_3)">
      <circle id="Ellipse_3-2" data-name="Ellipse 3" cx="90" cy="90" r="90" transform="translate(9 6)" fill="#fff"/>
    </g>
    <path id="iconfinder_47.Explore_290103" d="M59.179,115.357a56.179,56.179,0,1,1,56.179-56.179A56.178,56.178,0,0,1,59.179,115.357Zm0-107.007a50.828,50.828,0,1,0,50.828,50.828A50.83,50.83,0,0,0,59.179,8.35Zm42.8,53.5H99.306a2.675,2.675,0,0,1,0-5.35h2.675a2.675,2.675,0,0,1,0,5.35ZM85.874,83.8a2.525,2.525,0,0,1-.7,1.375,2.6,2.6,0,0,1-3.02.46l.155.158.021.021h0c-.433-.179-.819-.348-1.241-.522-13.881-5.784-21.971-10.315-26.4-13.21a30.215,30.215,0,0,1-4.8-3.62c-.12-.115-6.656-6.453-17.348-32.436h0l.179.179c-.027-.054-.032-.112-.054-.166a2.583,2.583,0,0,1-.1-1.768,2.494,2.494,0,0,1,.613-1.089,2.588,2.588,0,0,1,2.945-.484.618.618,0,0,1,.075.027l-.062-.067-.115-.112h0C62.012,43.24,68.349,49.775,68.464,49.9s6.656,6.455,17.348,32.436l0,0a0,0,0,0,1,0,0l-.118-.118-.062-.059a2.9,2.9,0,0,1,.128.391A2.638,2.638,0,0,1,85.874,83.8ZM64.652,53.649c-.056-.056-5.393-5.155-24.577-13.571C48.491,59.261,53.6,64.6,53.705,64.711c.056.056,5.393,5.158,24.577,13.571C69.866,59.1,64.759,53.759,64.652,53.649ZM59.179,56.5A2.675,2.675,0,1,1,56.5,59.179,2.673,2.673,0,0,1,59.179,56.5Zm0-34.777A2.674,2.674,0,0,1,56.5,19.051V16.376a2.675,2.675,0,0,1,5.35,0v2.675A2.674,2.674,0,0,1,59.179,21.726Zm0,74.9a2.673,2.673,0,0,1,2.675,2.675v2.675a2.675,2.675,0,0,1-5.35,0V99.306A2.673,2.673,0,0,1,59.179,96.631ZM19.051,61.854H16.376a2.675,2.675,0,0,1,0-5.35h2.675a2.675,2.675,0,0,1,0,5.35Z" transform="translate(1810.621 190.621)" fill="#201111" fill-rule="evenodd"/>
    <g id="Ellipse_25" data-name="Ellipse 25" transform="translate(1800.621 180.621)" fill="none" stroke="#201111" stroke-width="5">
      <circle cx="69" cy="69" r="69" stroke="none"/>
      <circle cx="69" cy="69" r="66.5" fill="none"/>
    </g>
    <g id="Group_100" data-name="Group 100" transform="translate(0.207 0.207)">
      <line id="Line_21" data-name="Line 21" y2="2" transform="translate(1899.828 219.414) rotate(45)" fill="none" stroke="#201111" stroke-linecap="round" stroke-width="5"/>
      <line id="Line_22" data-name="Line 22" y2="2" transform="translate(1899.828 279.828) rotate(135)" fill="none" stroke="#201111" stroke-linecap="round" stroke-width="5"/>
      <line id="Line_23" data-name="Line 23" y1="2" transform="translate(1839.828 220.828) rotate(135)" fill="none" stroke="#201111" stroke-linecap="round" stroke-width="5"/>
      <line id="Line_24" data-name="Line 24" y1="2" transform="translate(1839.828 278.414) rotate(45)" fill="none" stroke="#201111" stroke-linecap="round" stroke-width="5"/>
    </g>
  </g>
</svg>
