<svg xmlns="http://www.w3.org/2000/svg" xmlns:xlink="http://www.w3.org/1999/xlink" width="198" height="198" viewBox="0 0 198 198">
  <defs>
    <filter id="Ellipse_3" x="0" y="0" width="198" height="198" filterUnits="userSpaceOnUse">
      <feOffset dy="3" input="SourceAlpha"/>
      <feGaussianBlur stdDeviation="3" result="blur"/>
      <feFlood flood-opacity="0.161"/>
      <feComposite operator="in" in2="blur"/>
      <feComposite in="SourceGraphic"/>
    </filter>
  </defs>
  <g id="Group_30" data-name="Group 30" transform="translate(-1771 -154.21)">
    <g transform="matrix(1, 0, 0, 1, 1771, 154.21)" filter="url(#Ellipse_3)">
      <circle id="Ellipse_3-2" data-name="Ellipse 3" cx="90" cy="90" r="90" transform="translate(9 6)" fill="#fff"/>
    </g>
    <g id="guide" transform="translate(1539.399 -47.454)">
      <g id="Group_95" data-name="Group 95" transform="translate(313.325 241)">
        <path id="Path_74" data-name="Path 74" d="M520.941,241A23.368,23.368,0,0,0,497.7,261.917l.116,4.648h4.532v-4.648h0a18.759,18.759,0,0,1,37.186,0v4.648h4.532l.116-4.648A23.4,23.4,0,0,0,520.941,241Z" transform="translate(-497.7 -241)" fill="#201111"/>
        <rect id="Rectangle_35" data-name="Rectangle 35" width="4.648" height="13.433" transform="translate(0 20.917)" fill="#201111"/>
        <rect id="Rectangle_36" data-name="Rectangle 36" width="4.648" height="13.433" transform="translate(41.834 20.917)" fill="#201111"/>
      </g>
      <path id="Path_75" data-name="Path 75" d="M541.858,316.7c-6.182,0-11.016-5.973-13.457-9.738-3.6,3.463-11.806,8.762-28.377,8.762a2.324,2.324,0,0,1,0-4.648c11.086,0,17.779-2.557,21.452-4.695a14.934,14.934,0,0,0,5.252-4.578A2.234,2.234,0,0,1,528.8,300.6a2.279,2.279,0,0,1,2.045,1.325c1.371,2.812,6.043,10.133,10.993,10.133a2.324,2.324,0,0,1,.023,4.648Z" transform="translate(-184.375 -45.746)" fill="#201111"/>
      <path id="Path_76" data-name="Path 76" d="M555.416,539.471a2.046,2.046,0,0,1-1.6-.767,2.1,2.1,0,0,1,.279-2.952l6.345-5.253-5.09-4.486a2.091,2.091,0,0,1,2.766-3.138l6.9,6.112a2.1,2.1,0,0,1-.07,3.184l-8.2,6.81A1.988,1.988,0,0,1,555.416,539.471Z" transform="translate(-227.077 -215.966)" fill="#201111"/>
      <path id="Path_77" data-name="Path 77" d="M599,539.445a2.032,2.032,0,0,1-1.325-.488l-8.2-6.81a2.1,2.1,0,0,1-.07-3.184l6.9-6.112a2.091,2.091,0,0,1,2.766,3.138L594,530.5l6.345,5.253a2.1,2.1,0,0,1,.279,2.952A2.18,2.18,0,0,1,599,539.445Z" transform="translate(-254.226 -215.939)" fill="#201111"/>
      <path id="Path_78" data-name="Path 78" d="M559.547,439a13.185,13.185,0,0,1-11.388-6.577,2.328,2.328,0,1,1,4.021-2.347,8.508,8.508,0,0,0,14.735,0,2.328,2.328,0,1,1,4.021,2.347A13.234,13.234,0,0,1,559.547,439Z" transform="translate(-222.865 -144.247)" fill="#201111"/>
      <path id="Path_79" data-name="Path 79" d="M474,365.639c-5.485,0-9.6-4.346-9.6-10.11,0-3.858,1.394-7,3.719-8.39,1.394-.837,3.742-1.464,7.042.256A2.323,2.323,0,0,1,473,351.509c-.767-.4-1.813-.79-2.464-.4-.86.535-1.487,2.347-1.487,4.416,0,3.161,2.092,5.462,4.95,5.462a2.324,2.324,0,0,1,0,4.648Z" transform="translate(-158.814 -80.83)" fill="#201111"/>
      <path id="Path_80" data-name="Path 80" d="M685.043,365.582a2.324,2.324,0,1,1,0-4.648c2.882,0,4.95-2.3,4.95-5.462,0-2.068-.6-3.881-1.487-4.416-.651-.4-1.7,0-2.464.4a2.323,2.323,0,1,1-2.161-4.114c3.3-1.743,5.648-1.116,7.042-.256,2.324,1.418,3.719,4.532,3.719,8.39C694.665,361.236,690.528,365.582,685.043,365.582Z" transform="translate(-326.329 -80.773)" fill="#201111"/>
      <path id="Path_81" data-name="Path 81" d="M292.362,364.816h4.648V278.824a2.324,2.324,0,0,0-4.648,0v12.364l-33.4,13.364a2.327,2.327,0,0,0,0,4.323l33.4,13.364v42.578Zm-26.262-58.1,26.286-10.5v21.033Z" transform="translate(0 -27.249)" fill="#201111"/>
      <circle id="Ellipse_23" data-name="Ellipse 23" cx="1.511" cy="1.511" r="1.511" transform="translate(335.172 323.041)" fill="#201111"/>
      <circle id="Ellipse_24" data-name="Ellipse 24" cx="1.511" cy="1.511" r="1.511" transform="translate(335.172 330.478)" fill="#201111"/>
      <g id="Group_96" data-name="Group 96" transform="translate(313.023 326.876)">
        <line id="Line_20" data-name="Line 20" y2="5.02" transform="translate(2.092 2.092)" fill="none"/>
        <path id="Path_82" data-name="Path 82" d="M498.492,619.7a2.083,2.083,0,0,1-2.092-2.092v-5.02a2.092,2.092,0,0,1,4.183,0v5.02A2.113,2.113,0,0,1,498.492,619.7Z" transform="translate(-496.4 -610.5)" fill="#201111"/>
      </g>
      <path id="Path_83" data-name="Path 83" d="M448.741,709.49a65.428,65.428,0,0,1-38.882-12.666,2.1,2.1,0,1,1,2.464-3.393,61.853,61.853,0,0,0,80.367-6.484,2.087,2.087,0,1,1,2.975,2.928A65.449,65.449,0,0,1,448.741,709.49Z" transform="translate(-116.289 -341.826)" fill="#201111"/>
      <path id="Path_84" data-name="Path 84" d="M495.916,429.043V414.216a21.131,21.131,0,0,0-17.8-20.894c-3.323-.535-13.759-2.208-17.059-2.719v-4.114A23.288,23.288,0,0,0,475,365.177V357.9h-.116V351h-4.532v14.177a18.593,18.593,0,0,1-37.186,0V351h-4.532v5.973h-.116v8.2a23.288,23.288,0,0,0,13.945,21.312V390.6c-3.556.581-13.48,2.161-17.059,2.719a21.155,21.155,0,0,0-17.8,20.894v23.1a2.331,2.331,0,0,0,2.324,2.324h2.347V414.216a16.408,16.408,0,0,1,13.9-16.292l6.112-.976,5.183-.837,7.716-1.232a2.322,2.322,0,0,0,1.952-2.3v-4.625a23.474,23.474,0,0,0,9.3,0v4.625a2.344,2.344,0,0,0,1.952,2.3l7.716,1.232,5.183.837,6.112.976a16.429,16.429,0,0,1,13.9,16.292v19.755" transform="translate(-115.215 -84.435)" fill="#201111"/>
      <g id="Group_97" data-name="Group 97" transform="translate(306.283 334.197)">
        <path id="Path_85" data-name="Path 85" d="M472.118,718.954v-8.437a2.324,2.324,0,1,0-4.648,0V708.96l-.07-.86v11.853h4.718Z" transform="translate(-467.4 -692.738)" fill="#201111"/>
        <path id="Path_86" data-name="Path 86" d="M712.418,665.311l-.07-7.972V644.324a2.324,2.324,0,0,0-4.648,0v20.987" transform="translate(-651.852 -642)" fill="#201111"/>
      </g>
      <path id="Path_87" data-name="Path 87" d="M772.325,682.692c0,1.116-.93,1.859-1.836,2.766s-2.789-1.232-2.789-2.51,4.625-4.021,4.625-2.742Z" transform="translate(-391.624 -336.875)" fill="#201111"/>
      <path id="Path_88" data-name="Path 88" d="M578.423,724.969a2.034,2.034,0,0,1-1.278-.442,2.1,2.1,0,0,1-.372-2.928L587,708.445A2.087,2.087,0,0,1,590.3,711l-10.226,13.154A2.047,2.047,0,0,1,578.423,724.969Z" transform="translate(-244.739 -358.189)" fill="#201111"/>
      <path id="Path_89" data-name="Path 89" d="M564.108,718.232a2.091,2.091,0,0,1-1.627-.767l-5.206-6.438a2.1,2.1,0,1,1,3.254-2.65l5.206,6.438a2.123,2.123,0,0,1-.3,2.952A2.3,2.3,0,0,1,564.108,718.232Z" transform="translate(-229.75 -358.168)" fill="#201111"/>
      <path id="Path_90" data-name="Path 90" d="M572.228,590.966,568.3,589.5c.139-.372,13.875-37.511,15.967-55.8l4.16.465C586.289,552.99,572.809,589.432,572.228,590.966Z" transform="translate(-238.567 -224.673)" fill="#201111"/>
      <g id="Group_98" data-name="Group 98" transform="translate(339.727 306.935)">
        <path id="Path_91" data-name="Path 91" d="M648.787,545.4l-1.487,8.134A70.477,70.477,0,0,0,648.787,545.4Z" transform="translate(-638.933 -540.589)" fill="#201111"/>
        <path id="Path_92" data-name="Path 92" d="M635.076,539.458c-1.255-3.765-5.253-12.713-15.479-14.712-.093-.023-.186-.023-.256-.047l1.813,4.811c5.09,1.906,7.855,6.229,9.2,9.3l-6.531,2.115a2.088,2.088,0,0,0-1.092,3.138l4.648,7-13.178,16.571-2.905,4.137,3.881.046h.023a2.047,2.047,0,0,0,1.627-.79L631.543,552.5a2.06,2.06,0,0,0,.116-2.464l-3.951-5.973,6.019-1.952a2.111,2.111,0,0,0,1.232-1.046A2.025,2.025,0,0,0,635.076,539.458Z" transform="translate(-611.3 -524.7)" fill="#201111"/>
      </g>
      <path id="Path_93" data-name="Path 93" d="M510.062,568.93C503,547.478,499,532.116,499.092,526.77a2.019,2.019,0,0,0-.744-1.65,2.133,2.133,0,0,0-1.743-.442c-10.226,2-14.224,10.947-15.479,14.712a2.025,2.025,0,0,0,.116,1.6,2.111,2.111,0,0,0,1.232,1.046l6.019,1.952-3.951,5.973a2.133,2.133,0,0,0,.116,2.464l14.758,18.546a2.119,2.119,0,0,0,1.627.79c.023,0,.023,0-.023-.023.023,0,.511,0,1.209-.023l-.163-4.137-13.178-16.571,4.648-7.019a2.088,2.088,0,0,0-1.092-3.138l-6.531-2.115c1.348-3.045,4.09-7.391,9.2-9.3.976,8.878,6.322,26.355,10.133,38.092l1.3,4.137h1.511a2.1,2.1,0,0,0,2-2.742Z" transform="translate(-171.567 -217.721)" fill="#201111"/>
      <g id="Group_99" data-name="Group 99" transform="translate(306.283 331.896)">
        <rect id="Rectangle_37" data-name="Rectangle 37" width="13.48" height="17.965" transform="translate(2.092 2.092)" fill="#fff"/>
        <path id="Path_94" data-name="Path 94" d="M482.972,654.249h-13.48a2.083,2.083,0,0,1-2.092-2.092V634.192a2.083,2.083,0,0,1,2.092-2.092h13.48a2.083,2.083,0,0,1,2.092,2.092v17.965A2.083,2.083,0,0,1,482.972,654.249Zm-11.388-4.183h9.3V636.283h-9.3Z" transform="translate(-467.4 -632.1)"/>
      </g>
    </g>
  </g>
</svg>
