<svg xmlns="http://www.w3.org/2000/svg" width="19.329" height="19.702" viewBox="0 0 19.329 19.702">
  <g id="XMLID_16_" transform="translate(-71 -67.5)">
    <path id="XMLID_19_" d="M167.915,68.4h-.005l3.919,4.086V88H157.2v.049h14.677V72.535L167.915,68.4" transform="translate(-81.547 -0.851)" fill="#949494"/>
    <path id="XMLID_20_" d="M167.009,67.5H156.3V87.153h14.677V71.635L167.009,67.5" transform="translate(-80.696)" fill="#f1f1f1"/>
    <path id="XMLID_39_" d="M75.5,87H71v4.8H85.142V87Z" transform="translate(0 -18.447)" fill="gray"/>
    <rect id="XMLID_30_" width="14.126" height="4.809" transform="translate(71.092 68.472)" fill="#dc1d00"/>
    <g id="XMLID_1_" transform="translate(74.859 69.276)">
      <path id="XMLID_35_" d="M143.283,102.114h-.065v-1.042h.135a.394.394,0,0,1,.324.13.651.651,0,0,1,.13.394.47.47,0,0,1-.157.443.653.653,0,0,1-.367.076m.135-1.614H142.5v3.379h.723V102.74l.162.011a1.474,1.474,0,0,0,.453-.081.964.964,0,0,0,.345-.205.867.867,0,0,0,.238-.318,1.532,1.532,0,0,0,.076-.637,1.628,1.628,0,0,0-.081-.453.91.91,0,0,0-.205-.291.919.919,0,0,0-.275-.167,1.549,1.549,0,0,0-.291-.076,1.224,1.224,0,0,0-.227-.022" transform="translate(-142.5 -100.495)" fill="#4d4d4d"/>
      <path id="XMLID_38_" d="M188.593,103.169h-.07v-2.154h.011a.739.739,0,0,1,.421.076.815.815,0,0,1,.227.281.951.951,0,0,1,.1.372c.005.157,0,.281,0,.389a2.19,2.19,0,0,1-.022.362,1.318,1.318,0,0,1-.119.356.874.874,0,0,1-.254.254.555.555,0,0,1-.291.065m.13-2.769c-.076,0-.157.005-.205.005-.092.005-.146.005-.167.005H187.8v3.379h.648a1.909,1.909,0,0,0,.723-.124,1.224,1.224,0,0,0,.48-.345,1.4,1.4,0,0,0,.264-.529,2.615,2.615,0,0,0,.081-.669,3.252,3.252,0,0,0-.059-.793,1.2,1.2,0,0,0-.286-.518,1.079,1.079,0,0,0-.378-.281,1.7,1.7,0,0,0-.389-.124c-.054-.005-.108-.005-.162-.005" transform="translate(-185.355 -100.4)" fill="#4d4d4d"/>
      <path id="XMLID_64_" d="M238.711,100.6H237v3.379h.723v-1.344h.912v-.626h-.912v-.783h.988V100.6" transform="translate(-231.899 -100.589)" fill="#4d4d4d"/>
    </g>
    <path id="XMLID_28_" d="M219,207.372c-.005-.065-.065-.847-1.457-.815a10.193,10.193,0,0,0-1.727.119,8.872,8.872,0,0,1-1.414-1.868,8.254,8.254,0,0,0,.437-2.186c-.022-.842-.221-1.328-.869-1.322s-.74.572-.659,1.414a6.51,6.51,0,0,0,.47,1.646s-.3.928-.7,1.857-.664,1.414-.664,1.414a6.743,6.743,0,0,0-1.916.988c-.578.54-.815.955-.513,1.371.264.356,1.182.437,2.008-.642a16.216,16.216,0,0,0,1.193-1.754s1.258-.345,1.646-.437.864-.167.864-.167a3.754,3.754,0,0,0,2.251,1.112C219.06,208.057,219.006,207.436,219,207.372Zm-8.723,2.434c-.686-.41,1.441-1.679,1.83-1.722C212.107,208.084,211,210.238,210.278,209.806Zm3.271-7.395c0-.669.216-.847.383-.847s.356.081.362.659a7.723,7.723,0,0,1-.362,1.711A3.168,3.168,0,0,1,213.549,202.411Zm.891,4.572a5.1,5.1,0,0,0-1.036.345l.281-.632c.281-.632.572-1.5.572-1.5a9.9,9.9,0,0,0,1.166,1.587A6.779,6.779,0,0,0,214.439,206.983Zm1.657-.059s2.245-.4,2.245.362S216.949,207.733,216.1,206.924Z" transform="translate(-131.364 -126.577)" fill="#dc1d00"/>
    <path id="XMLID_44_" d="M353.7,68.5v4.135h3.967Z" transform="translate(-267.44 -0.946)" fill="#949494"/>
    <path id="XMLID_21_" d="M354.7,67.5v4.135h3.967Z" transform="translate(-268.387)" fill="#f1f1f1"/>
    <g id="XMLID_23_" transform="translate(74.805 69.222)">
      <path id="XMLID_43_" d="M142.283,101.114h-.065v-1.042h.135a.394.394,0,0,1,.324.13.651.651,0,0,1,.13.394.47.47,0,0,1-.157.443.653.653,0,0,1-.367.076m.135-1.614H141.5v3.379h.723V101.74l.162.011a1.474,1.474,0,0,0,.453-.081.964.964,0,0,0,.345-.205.866.866,0,0,0,.238-.318,1.532,1.532,0,0,0,.076-.637,1.628,1.628,0,0,0-.081-.453.91.91,0,0,0-.205-.291.919.919,0,0,0-.275-.167,1.549,1.549,0,0,0-.291-.076,1.224,1.224,0,0,0-.227-.022" transform="translate(-141.5 -99.495)" fill="#fffefe"/>
      <path id="XMLID_32_" d="M187.593,102.169h-.07v-2.154h.011a.739.739,0,0,1,.421.076.815.815,0,0,1,.227.281.951.951,0,0,1,.1.372c.005.157,0,.281,0,.389a2.19,2.19,0,0,1-.022.362,1.318,1.318,0,0,1-.119.356.874.874,0,0,1-.254.254.555.555,0,0,1-.291.065m.13-2.769c-.076,0-.157.005-.205.005-.092.005-.146.005-.167.005H186.8v3.379h.648a1.909,1.909,0,0,0,.723-.124,1.224,1.224,0,0,0,.48-.345,1.4,1.4,0,0,0,.264-.529,2.615,2.615,0,0,0,.081-.669,3.252,3.252,0,0,0-.059-.793,1.2,1.2,0,0,0-.286-.518,1.079,1.079,0,0,0-.378-.281,1.7,1.7,0,0,0-.389-.124c-.054-.005-.108-.005-.162-.005" transform="translate(-184.355 -99.4)" fill="#fffefe"/>
      <path id="XMLID_24_" d="M237.711,99.6H236v3.379h.723v-1.344h.912v-.626h-.912v-.783h.988V99.6" transform="translate(-230.899 -99.589)" fill="#fffefe"/>
    </g>
  </g>
</svg>
